#tb 0: 1/32000
#media_type 0: audio
#codec_id 0: pcm_s16le
#sample_rate 0: 32000
#channel_layout_name 0: stereo
0,          0,          0,     1078,     4312, 0x469714f6
0,       1078,       1078,     1064,     4256, 0x6ca28f25
0,       2142,       2142,     1078,     4312, 0xd466f806
0,       3220,       3220,     1064,     4256, 0x59d69463
0,       4284,       4284,     1064,     4256, 0xf4805f42
0,       5348,       5348,     1078,     4312, 0x579f22aa
0,       6426,       6426,     1064,     4256, 0xbdc88f45
0,       7490,       7490,     1064,     4256, 0xc71ebf04
0,       8554,       8554,     1078,     4312, 0xc1c86e49
0,       9632,       9632,     1064,     4256, 0x96365506
0,      10696,      10696,     1064,     4256, 0xaf59bfe5
0,      11760,      11760,     1078,     4312, 0x4f00811d
0,      12838,      12838,     1064,     4256, 0x0d8a243a
0,      13902,      13902,     1064,     4256, 0x98fc3477
0,      14966,      14966,     1078,     4312, 0xbf327cc1
0,      16044,      16044,     1064,     4256, 0xdc52d5bd
0,      17108,      17108,     1064,     4256, 0x29eb1ca6
0,      18172,      18172,     1078,     4312, 0xf647067f
0,      19250,      19250,     1064,     4256, 0x4f4b70db
0,      20314,      20314,     1064,     4256, 0xa73b7e5d
0,      21378,      21378,     1078,     4312, 0x1f5464ff
0,      22456,      22456,     1064,     4256, 0xcd7a46f2
0,      23520,      23520,     1064,     4256, 0x7e203f8e
0,      24584,      24584,     1078,     4312, 0x82e5f5ee
0,      25662,      25662,     1064,     4256, 0xfbb65050
0,      26726,      26726,     1064,     4256, 0x474d33ff
0,      27790,      27790,     1078,     4312, 0x737a0586
0,      28868,      28868,     1064,     4256, 0xf677f86a
0,      29932,      29932,     1064,     4256, 0xe35919f9
0,      30996,      30996,     1078,     4312, 0x74f382b2
0,      32074,      32074,     1064,     4256, 0xe10095c1
0,      33138,      33138,     1064,     4256, 0x5af2f855
0,      34202,      34202,     1078,     4312, 0x55239722
0,      35280,      35280,     1064,     4256, 0xf904da45
0,      36344,      36344,     1064,     4256, 0xdd8ca94f
0,      37408,      37408,     1078,     4312, 0xcc7a76f6
0,      38486,      38486,     1064,     4256, 0x67aa5b74
0,      39550,      39550,     1064,     4256, 0x6559608f
0,      40614,      40614,     1078,     4312, 0x7d297e71
0,      41692,      41692,     1064,     4256, 0x15c2b2e3
0,      42756,      42756,     1064,     4256, 0x0bf2896c
0,      43820,      43820,     1078,     4312, 0x17f75da7
0,      44898,      44898,     1064,     4256, 0x90b27489
0,      45962,      45962,     1064,     4256, 0xcc7d0de4
0,      47026,      47026,     1078,     4312, 0x0c8a0586
0,      48104,      48104,     1064,     4256, 0x184a2e34
0,      49168,      49168,     1064,     4256, 0xfe354354
0,      50232,      50232,     1078,     4312, 0x4e3bd1c1
0,      51310,      51310,     1064,     4256, 0x37a50e20
0,      52374,      52374,     1064,     4256, 0x2556584a
0,      53438,      53438,     1078,     4312, 0x380f3466
0,      54516,      54516,     1064,     4256, 0x25b4a1db
0,      55580,      55580,     1064,     4256, 0x77f15645
0,      56644,      56644,     1078,     4312, 0x278b5864
0,      57722,      57722,     1064,     4256, 0xcf2e701d
0,      58786,      58786,     1064,     4256, 0x8924e60f
0,      59850,      59850,     1078,     4312, 0x54db60f9
0,      60928,      60928,     1064,     4256, 0x365993ef
0,      61992,      61992,     1064,     4256, 0x37e4a996
0,      63056,      63056,     1078,     4312, 0x0b9bda87
0,      64134,      64134,     1064,     4256, 0x2eed0d61
0,      65198,      65198,     1064,     4256, 0xa826a02f
0,      66262,      66262,     1078,     4312, 0x9620255e
0,      67340,      67340,     1064,     4256, 0x0f3cc6f2
0,      68404,      68404,     1064,     4256, 0x14d89149
0,      69468,      69468,     1078,     4312, 0x87c74a3d
0,      70546,      70546,     1064,     4256, 0x73ca9dd9
0,      71610,      71610,     1064,     4256, 0x8419cab6
0,      72674,      72674,     1078,     4312, 0x7d1c59ec
0,      73752,      73752,     1064,     4256, 0xbf927052
0,      74816,      74816,     1064,     4256, 0x4a422bc3
